<svg xmlns="http://www.w3.org/2000/svg" version="1.1" viewBox="-5.0 -10.0 110.0 110.0">
 <path d="m67.578 11.5c-1.6914-0.63281-2.8945-2.2656-2.8945-4.1797 0-2.4609 1.9961-4.457 4.457-4.457s4.457 1.9961 4.457 4.457c0 1.9141-1.2031 3.5469-2.8945 4.1797v7.25c-0.003906 0.17578-0.03125 0.35156-0.089844 0.51953-0.15234 0.43359-0.50391 0.78906-0.93359 0.94922-0.16797 0.058594-0.34375 0.089844-0.51953 0.09375h-14.082c-0.20312 0-0.40234-0.039062-0.58984-0.11719-0.39062-0.16016-0.70703-0.48047-0.86328-0.875-0.054688-0.13672-0.089844-0.28125-0.10156-0.42969-0.015626-0.16406-0.003907-0.33203 0.03125-0.49219 0.042968-0.17969 0.11719-0.35156 0.21875-0.50391 0.10937-0.16797 0.25-0.3125 0.41406-0.42578 0.17578-0.12109 0.37109-0.20703 0.57812-0.24609 0.10156-0.023437 0.20703-0.035156 0.3125-0.035156h12.5zm2.168-2.4922c0.69141-0.25 1.1875-0.91016 1.1875-1.6875 0-0.98828-0.80469-1.7891-1.793-1.7891s-1.793 0.80078-1.793 1.7891c0 0.77734 0.49609 1.4375 1.1875 1.6875 0.1875-0.078124 0.39062-0.12109 0.60547-0.12109s0.42188 0.042969 0.60547 0.12109z" fill-rule="evenodd"/>
 <path d="m74.34 26.562c0.63281-1.6914 2.2656-2.8945 4.1758-2.8945 2.4609 0 4.457 1.9961 4.457 4.457s-1.9961 4.457-4.457 4.457c-1.9102 0-3.543-1.2031-4.1758-2.8945h-19.262c-0.21875-0.003906-0.43359-0.046875-0.63281-0.13672-0.1875-0.082031-0.35547-0.20312-0.49609-0.34766-0.13672-0.14062-0.24219-0.30859-0.31641-0.48828-0.066406-0.16406-0.10547-0.33984-0.11328-0.51953-0.007812-0.17187 0.011719-0.34375 0.058594-0.50781 0.042969-0.14453 0.10938-0.28516 0.19141-0.41406 0.18359-0.28125 0.45703-0.5 0.77344-0.61719 0.17188-0.0625 0.35156-0.09375 0.53516-0.09375zm2.4883 2.168c0.25 0.69141 0.91016 1.1875 1.6875 1.1875 0.98828 0 1.793-0.80469 1.793-1.793s-0.80469-1.793-1.793-1.793c-0.77734 0-1.4375 0.49609-1.6875 1.1875 0.078125 0.18359 0.125 0.39062 0.125 0.60547s-0.046875 0.42188-0.125 0.60547z" fill-rule="evenodd"/>
 <path d="m70.703 41.137v-3.6367l-15.621 0.03125c-0.86328 0.003906-1.5625-0.69531-1.5664-1.5547 0-0.86328 0.69531-1.5625 1.5586-1.5664l17.188-0.035156c0.41797 0 0.8125 0.16406 1.1055 0.45703 0.29687 0.29297 0.46094 0.69141 0.46094 1.1055v5.1992c1.6914 0.63281 2.8945 2.2656 2.8945 4.1758 0 2.4609-1.9961 4.457-4.457 4.457s-4.457-1.9961-4.457-4.457c0-1.9102 1.2031-3.543 2.8945-4.1758zm0.95703 2.4883c-0.69141 0.25-1.1875 0.91016-1.1875 1.6875 0 0.98828 0.80469 1.793 1.793 1.793s1.793-0.80469 1.793-1.793c0-0.77734-0.49609-1.4375-1.1875-1.6875-0.18359 0.078125-0.39062 0.125-0.60547 0.125s-0.41797-0.046875-0.60547-0.125z" fill-rule="evenodd"/>
 <path d="m61.328 45.312h-6.25c-0.058594 0-0.11719-0.007812-0.17578-0.015625-0.17188-0.015625-0.34375-0.0625-0.5-0.14062-0.41406-0.19531-0.73438-0.58203-0.83984-1.0312-0.035156-0.15234-0.046875-0.31641-0.035156-0.47656 0.019531-0.22656 0.089844-0.44922 0.20312-0.64844 0.10938-0.19141 0.26172-0.36328 0.4375-0.49609 0.25781-0.19531 0.58203-0.31641 0.91016-0.31641h7.8125c0.16406 0 0.32812 0.027344 0.48438 0.078125 0.4375 0.14062 0.79688 0.48438 0.96875 0.91406 0.070312 0.17969 0.10547 0.375 0.10938 0.57031v14.574c1.6914 0.63281 2.8945 2.2656 2.8945 4.1758 0 2.4609-1.9961 4.457-4.457 4.457s-4.457-1.9961-4.457-4.457c0-1.9102 1.2031-3.543 2.8945-4.1758zm0.95703 15.5c-0.69141 0.25-1.1875 0.91016-1.1875 1.6875 0 0.98828 0.80469 1.793 1.793 1.793s1.793-0.80469 1.793-1.793c0-0.77734-0.49609-1.4375-1.1875-1.6875-0.18359 0.078125-0.39062 0.125-0.60547 0.125s-0.41797-0.046875-0.60547-0.125z" fill-rule="evenodd"/>
 <path d="m51.035 59.16c-0.011718 4.2852-3.4961 7.7578-7.7852 7.7578-2.5703 0-4.8516-1.25-6.2656-3.1758-0.32812 0.042968-0.65625 0.0625-0.99219 0.0625-3.7734 0-6.9219-2.6875-7.6328-6.25-0.21875 0.019531-0.44141 0.027343-0.66406 0.027343-4.2969 0-7.7852-3.4883-7.7852-7.7852 0-0.92969 0.16406-1.8281 0.46875-2.6562-0.94531-1.2891-1.5039-2.8828-1.5039-4.6016 0-0.90234 0.15234-1.7695 0.43359-2.5742-1.543-1.4219-2.5117-3.4609-2.5117-5.7227 0-2.2656 0.96875-4.3047 2.5117-5.7266-0.28125-0.80469-0.43359-1.6719-0.43359-2.5703 0-1.7227 0.55859-3.3125 1.5039-4.6016-0.30469-0.83203-0.46875-1.7266-0.46875-2.6602 0-4.2969 3.4883-7.7852 7.7852-7.7852 0.17188 0 0.41406 0.007812 0.66797 0.011718 0.71875-3.5547 3.8633-6.2344 7.6289-6.2344 0.33594 0 0.66406 0.019531 0.99219 0.0625 1.4141-1.9258 3.6953-3.1758 6.2656-3.1758 4.2969 0 7.7852 3.4922 7.7852 7.7852zm-3.1211-49.812c0-0.60156-0.11719-1.2031-0.34375-1.7617-0.20312-0.49219-0.49219-0.95313-0.84766-1.3516-0.32422-0.35938-0.70703-0.67188-1.125-0.91406-0.41016-0.24219-0.85938-0.41797-1.3203-0.52344-0.96094-0.21484-1.9805-0.11719-2.8828 0.27344-0.44922 0.19531-0.85938 0.46094-1.2227 0.78125l-0.027344 0.023438c0.53906 0.52344 1.125 1.2539 1.543 2.2227 0.60938 1.4258 0.88281 3.3828-0.085938 5.9492-0.30469 0.80469-1.2031 1.2148-2.0117 0.91016-0.80469-0.30078-1.2148-1.2031-0.91016-2.0117 0.58984-1.5625 0.50781-2.75 0.13672-3.6172-0.25391-0.58594-0.62109-1.0117-0.92578-1.293-0.19531 0.019532-0.39844 0.003906-0.59766-0.054687-0.41016-0.11719-0.84766-0.18359-1.3008-0.18359-2.5742 0-4.6641 2.0898-4.6641 4.6641 0 0.47656-0.16016 1.2227-1.1445 1.5234-0.125 0.035156-0.35156 0.082031-0.65234 0.089844-0.4375 0.007812-1.3008-0.054688-1.8359-0.054688-2.5742 0-4.6641 2.0898-4.6641 4.6641 0 0.78906 0.19922 1.5352 0.54688 2.1875 0.31641 0.59766 0.21094 1.3359-0.26172 1.8203-0.81641 0.83984-1.3203 1.9883-1.3203 3.2539 0 0.49219 0.074218 0.97266 0.21875 1.4219 0.61328-0.058594 1.4219-0.078126 2.2578 0.054687 1.9766 0.3125 4.0977 1.3984 4.7461 4.418 0.18359 0.83984-0.35547 1.6719-1.1953 1.8516-0.84375 0.18359-1.6758-0.35547-1.8555-1.1953-0.29688-1.3789-1.2852-1.8477-2.1836-1.9922-1.1172-0.17578-2.1445 0.066406-2.1445 0.066406-0.058594 0.015626-0.11719 0.027344-0.17188 0.03125-1.0664 0.85547-1.7461 2.168-1.7461 3.6406 0 1.6484 0.85938 3.1016 2.1523 3.9297 0.69922 0.44531 0.92578 1.3594 0.51953 2.082-0.38281 0.67578-0.59766 1.457-0.59766 2.2852 0 0.96875 0.29297 1.8672 0.80078 2.6133 0.015625 0.003906 0.035156 0.007812 0.050781 0.011718 0 0 1.6172 0.35547 3.4258 0.089844 1.5938-0.23438 3.3984-0.97266 4.0781-3.1758 0.91406-2.9648 2.2539-4.2852 3.4688-4.8398 2.0625-0.94141 4.1758 0.16016 5.2031 0.95703 0.67969 0.52734 0.80469 1.5078 0.27344 2.1875-0.52734 0.68359-1.5078 0.80469-2.1875 0.27734-0.40234-0.3125-1.1836-0.94922-1.9922-0.58203-0.44141 0.20312-0.82813 0.63672-1.1836 1.3594 0.80859 0.26172 1.7031 0.73438 2.3945 1.5703 0.70703 0.85547 1.2539 2.0938 1.2266 3.9297-0.015626 0.85938-0.72656 1.5469-1.5859 1.5352-0.86328-0.011718-1.5508-0.72266-1.5391-1.5859 0.015624-0.87109-0.16797-1.4805-0.50391-1.8867-0.32422-0.39062-0.74609-0.58594-1.1211-0.68359-1.3438 2.6445-3.8008 3.6914-6.0781 4.0273-1.3516 0.19531-2.6211 0.13281-3.4766 0.035156-0.14062 0.44922-0.21875 0.92578-0.21875 1.418 0 2.5742 2.0898 4.6641 4.6641 4.6641 0.54688 0 1.0742-0.09375 1.5625-0.26563 0.49219-0.17578 1.043-0.09375 1.4609 0.22266 0.41797 0.31641 0.64844 0.82031 0.61719 1.3438-0.003907 0.085937-0.007813 0.17188-0.007813 0.26172 0 2.5703 2.0898 4.6602 4.6641 4.6602 0.45312 0 0.89062-0.0625 1.3008-0.18359 0.71484-0.20703 1.4766 0.11719 1.8203 0.78125 0.77734 1.4922 2.3398 2.5156 4.1367 2.5156 2.5391 0 4.6094-2.0352 4.6641-4.5586-0.066406-0.39453-0.39062-1.8711-1.6406-2.5586-0.63281-0.35156-1.5-0.44922-2.6641-0.17578-0.83984 0.19922-1.6797-0.32422-1.875-1.1602-0.19922-0.83984 0.32031-1.6797 1.1602-1.8789 2.1445-0.50391 3.7188-0.16406 4.8867 0.47656 0.042969 0.027344 0.089844 0.050782 0.13281 0.078125v-24.094c-0.58203-0.33203-1.4727-0.80078-2.4492-1.1445-0.92578-0.32422-1.9336-0.59375-2.7578-0.32031-3.6016 1.1953-8.1523-0.38672-9.25-4.1562-0.24219-0.82813 0.23438-1.6953 1.0625-1.9336 0.82422-0.24219 1.6914 0.23438 1.9336 1.0625 0.61328 2.1016 3.2578 2.7344 5.2695 2.0664 1.4219-0.47266 3.1836-0.22656 4.7773 0.33594 0.49609 0.17578 0.97266 0.375 1.4141 0.57812z" fill-rule="evenodd"/>
 <path d="m7.8125 47.031c0-0.45312 0.066406-0.89844 0.19531-1.332 0.3125-1.0664 0.99219-2.0117 1.8984-2.6484 0.32422-0.22656 0.67969-0.41406 1.0469-0.55469 0.54297-0.20703 1.125-0.30859 1.7031-0.30859h1.4062c0.27734 0 0.55469 0.074219 0.79297 0.21875 0.17188 0.10156 0.32422 0.23438 0.44922 0.39453 0.11328 0.15234 0.20312 0.32031 0.25781 0.50391 0.046875 0.16406 0.066406 0.33594 0.0625 0.50781-0.007812 0.15625-0.035156 0.30859-0.089844 0.45703-0.14844 0.42188-0.48047 0.76953-0.89844 0.93359-0.17578 0.070313-0.36328 0.10547-0.55469 0.10938h-1.4492c-0.21094 0.003906-0.42187 0.046875-0.62109 0.125-0.47656 0.19531-0.84766 0.60938-1 1.1016-0.050781 0.16016-0.074219 0.32422-0.074219 0.49219l-0.14844 38.992 31.398-0.085938c0.058594 0 0.11719 0 0.17188 0.003906 0.085937 0.003906 0.17578 0.015625 0.26172 0.027344 0.17578 0.027344 0.35547 0.066406 0.52734 0.11719 0.32031 0.097656 0.62891 0.24609 0.90234 0.4375 0.32812 0.23047 0.60547 0.52344 0.81641 0.86719 0.20312 0.33594 0.33594 0.71484 0.39844 1.1016 0.019531 0.13281 0.03125 0.26172 0.039063 0.39062 0.003906 0.035157 0.003906 0.070313 0.007812 0.10938v0.035156c0 0.011718-0.011719 0.035156 0 0.035156 3.125 0.011719 6.25 0.007812 9.375 0 0.007812 0 0-0.015625 0-0.023438v-0.042968c0-0.042969 0.003906-0.085938 0.003906-0.12891 0.007813-0.12891 0.023438-0.26172 0.042969-0.39063 0.0625-0.38281 0.19531-0.75 0.39453-1.0781 0.11328-0.1875 0.24609-0.36328 0.39453-0.52344 0.125-0.12891 0.26172-0.25 0.41016-0.35547 0.34375-0.25 0.73828-0.41797 1.1523-0.50781 0.23828-0.050781 0.48437-0.074219 0.72656-0.074219l31.34-0.13281-0.14453-38.773c-0.003906-0.51953-0.21094-1.0469-0.61719-1.3828-0.066406-0.054688-0.13672-0.10156-0.21094-0.14453-0.09375-0.054687-0.19141-0.097656-0.29297-0.12891-0.14453-0.042969-0.29297-0.0625-0.44141-0.0625h-6.1953c-0.17578 0-0.35156-0.03125-0.51953-0.089844-0.38672-0.13672-0.71094-0.42578-0.88672-0.79688-0.066406-0.13281-0.10938-0.27344-0.13281-0.41797-0.03125-0.17187-0.03125-0.34375 0-0.51562 0.023437-0.14453 0.066406-0.28516 0.13281-0.41797 0.17969-0.37891 0.51172-0.67188 0.90625-0.80469 0.16016-0.054687 0.32812-0.082031 0.5-0.082031h6.1953c0.50781 0 1.0117 0.078125 1.4961 0.23828 0.33203 0.10938 0.65234 0.25781 0.94922 0.44531 0.50781 0.31641 0.95312 0.73438 1.3047 1.2188 0.28125 0.39453 0.50781 0.83203 0.66406 1.293 0.17969 0.53125 0.26953 1.0859 0.27344 1.6484l0.054688 38.906h4.6875c0.86328 0 1.5625 0.69922 1.5625 1.5625 0 6.0156-4.9219 10.938-10.938 10.938h-75c-0.37109 0-0.74219-0.019531-1.1133-0.054688-0.74609-0.078124-1.4805-0.23047-2.1953-0.46094-1.3242-0.42188-2.5664-1.1016-3.6367-1.9922-1.2031-0.99219-2.1914-2.2383-2.8789-3.6406-0.1875-0.375-0.35156-0.76562-0.49219-1.1641-0.12109-0.33984-0.22266-0.68359-0.30859-1.0312-0.0625-0.26562-0.11719-0.53125-0.16406-0.79688-0.070313-0.43359-0.11719-0.86719-0.13672-1.3047-0.003907-0.11719-0.007813-0.23438-0.011719-0.35156 0-0.12109 0-0.23828 0.015625-0.35938 0.054687-0.41016 0.28125-0.78516 0.61328-1.0312 0.11328-0.089844 0.24219-0.16016 0.37891-0.21094 0.17578-0.066406 0.36719-0.10156 0.55469-0.10156l4.6016-0.11719zm87.344 42.031h-37.344c-0.007812 0.4375-0.074219 0.85938-0.24219 1.2656-0.47656 1.168-1.6367 1.8594-2.8828 1.8594h-9.375c-1.2461 0-2.4062-0.69141-2.8828-1.8594-0.16797-0.40625-0.23438-0.82812-0.24219-1.2656l-37.34 0.007812c0.58984 2.6875 2.5312 4.9375 5.1523 5.8281 0.80859 0.27734 1.6484 0.40234 2.5 0.41406h75c3.7617 0 6.9258-2.6953 7.6562-6.25z" fill-rule="evenodd"/></svg>
